<?xml version="1.0" encoding="utf-8"?>
<!-- Generator: Adobe Illustrator 24.3.0, SVG Export Plug-In . SVG Version: 6.00 Build 0)  -->
<svg version="1.1" id="Layer_1" xmlns="http://www.w3.org/2000/svg" xmlns:xlink="http://www.w3.org/1999/xlink" x="0px" y="0px"
	 viewBox="0 0 457.9 168.7" style="enable-background:new 0 0 457.9 168.7;" xml:space="preserve">
<style type="text/css">
	.st0{fill:#FFFFFF;}
</style>
<g>
	<path class="st0" d="M74.4,36.2c2.7,2.8,4,6.6,4,11.6c0,4.9-1.3,8.8-4,11.5c-2.7,2.8-6.4,4.1-11.2,4.1h-4v14.9h-9.4V32h13.4
		C68,32,71.7,33.4,74.4,36.2z M67.3,52.7c1-1.1,1.5-2.8,1.5-5c0-2.2-0.5-3.9-1.5-5.1c-1-1.1-2.4-1.7-4.3-1.7h-3.9v13.6H63
		C64.9,54.5,66.4,53.9,67.3,52.7z"/>
	<path class="st0" d="M96.3,62.7H93v15.5h-9.4V32H97c4.6,0,8.2,1.4,10.7,4.1c2.6,2.7,3.9,6.5,3.9,11.3c0,3.1-0.6,5.8-1.7,8.1
		c-1.1,2.3-2.7,4-4.8,5.3l8.7,17.5h-10.2L96.3,62.7z M93,53.8h3.9c1.7,0,2.9-0.6,3.8-1.7c0.9-1.1,1.3-2.7,1.3-4.8
		c0-2.1-0.4-3.7-1.3-4.8c-0.9-1.1-2.1-1.7-3.8-1.7H93V53.8z"/>
	<path class="st0" d="M148.7,70.6H139l-1.5,7.7h-9.7L138.8,32h10.1L160,78.3h-9.7L148.7,70.6z M146.9,61.7l-1.1-5.3
		c-0.6-3.4-1.2-7.6-1.9-12.7h-0.3c-0.8,6-1.4,10.2-1.9,12.7l-1.1,5.3H146.9z"/>
	<path class="st0" d="M164.3,32h9.4v46.3h-9.4V32z"/>
	<path class="st0" d="M182.9,75.4c-2.6-2.5-3.8-6.1-3.8-10.6h9.7c0,3.5,1.6,5.3,4.8,5.3c1.5,0,2.6-0.4,3.4-1.2
		c0.8-0.8,1.2-1.8,1.2-2.9c0-1.5-0.6-2.7-1.7-3.8c-1.1-1.1-2.9-2.4-5.3-3.9c-2.3-1.5-4.2-2.8-5.7-4c-1.5-1.2-2.7-2.7-3.8-4.5
		c-1.1-1.8-1.6-4-1.6-6.5c0-3.6,1.2-6.6,3.6-8.8c2.4-2.3,5.7-3.4,9.9-3.4c4.3,0,7.6,1.2,10.1,3.6c2.4,2.4,3.6,5.7,3.6,10h-9.7
		c0-3-1.4-4.6-4.1-4.6c-1.2,0-2.2,0.3-2.9,0.9c-0.7,0.6-1,1.5-1,2.5c0,1.3,0.5,2.5,1.6,3.4c1.1,1,2.8,2.2,5.2,3.6
		c2.4,1.5,4.4,2.8,5.9,4s2.8,2.7,4,4.6c1.1,1.9,1.7,4.2,1.7,6.9c0,2.6-0.6,4.8-1.8,6.8c-1.2,2-2.8,3.5-5,4.7
		c-2.2,1.1-4.8,1.7-7.8,1.7C188.9,79.2,185.4,77.9,182.9,75.4z"/>
	<path class="st0" d="M229.4,74.9c-2.6-2.8-4-6.7-4-11.6V47c0-4.9,1.3-8.8,4-11.6c2.6-2.8,6.3-4.2,11-4.2c4.7,0,8.4,1.4,11,4.2
		c2.6,2.8,4,6.7,4,11.6v16.3c0,4.9-1.3,8.8-4,11.6c-2.6,2.8-6.3,4.2-11,4.2C235.8,79.1,232.1,77.7,229.4,74.9z M244.4,68.3
		c0.9-1.1,1.3-2.8,1.3-5V47c0-2.2-0.4-3.9-1.3-5c-0.9-1.1-2.2-1.7-4-1.7c-1.8,0-3.1,0.6-4,1.7c-0.9,1.1-1.3,2.8-1.3,5v16.3
		c0,2.2,0.4,3.9,1.3,5c0.9,1.1,2.2,1.7,4,1.7C242.2,69.9,243.6,69.4,244.4,68.3z"/>
	<path class="st0" d="M265.4,74.9c-2.6-2.8-3.9-6.6-3.9-11.4V32h9.6v31.5c0,2.1,0.4,3.7,1.3,4.8c0.8,1.1,2.1,1.6,3.7,1.6
		c1.6,0,2.9-0.5,3.7-1.6c0.8-1.1,1.3-2.7,1.3-4.8V32h9.6v31.5c0,4.9-1.3,8.7-3.9,11.4c-2.6,2.8-6.1,4.1-10.7,4.1
		C271.6,79.1,268,77.7,265.4,74.9z"/>
	<path class="st0" d="M322.7,40.9h-9.1v37.4H304V40.9H295V32h27.8V40.9z"/>
	<path class="st0" d="M327.2,32h9.4v46.3h-9.4V32z"/>
	<path class="st0" d="M344.8,32h9.3l8.8,20.1c0.5,1.2,1,2.7,1.7,4.4l1.7,4.4l0.2-0.2c-0.4-2.8-0.7-6-1-9.5c-0.2-3.5-0.4-6.3-0.4-8.6
		V32h9.3v46.3H365l-7.8-17.9L353,49l-0.2,0.2c0.4,2.8,0.6,6.1,0.9,9.9c0.2,3.8,0.3,7,0.3,9.7v9.4h-9.3V32z"/>
	<path class="st0" d="M385,75.2c-2.6-2.6-3.8-6.3-3.8-11.1v-18c0-4.8,1.3-8.5,3.8-11.1c2.6-2.6,6.2-3.9,10.8-3.9
		c4.5,0,7.9,1.3,10.3,3.8c2.4,2.6,3.7,6.3,3.9,11.1h-9.4c-0.1-2.1-0.5-3.6-1.2-4.5c-0.7-0.9-1.9-1.4-3.5-1.4s-2.9,0.5-3.7,1.4
		c-0.8,0.9-1.2,2.4-1.2,4.5v18c0,2.1,0.4,3.6,1.2,4.5c0.8,0.9,2.1,1.4,3.7,1.4c1.7,0,3-0.5,3.8-1.4c0.8-0.9,1.3-2.4,1.3-4.5v-3.3
		h-5.6v-8.3h14.8v11.6c-0.1,4.9-1.4,8.6-3.9,11.1c-2.5,2.6-6,3.8-10.5,3.8C391.1,79.1,387.5,77.8,385,75.2z"/>
</g>
<g>
	<path class="st0" d="M294.8,136.1c0-2.6,0.5-5.1,1.5-7.3c1-2.2,2.1-4.2,3.5-5.9c1.4-1.7,3.1-3.7,5.3-5.9c2.2-2.3,3.8-4.2,4.8-5.6
		s1.5-2.8,1.5-4.3c0-1.1-0.3-2-0.9-2.8c-0.6-0.8-1.5-1.2-2.7-1.2s-2.1,0.4-2.8,1.3c-0.7,0.8-1.1,2-1.1,3.6h-8.5
		c0.2-4.4,1.3-7.7,3.4-9.9s5.1-3.4,8.9-3.4c2.8,0,5.1,0.6,7,1.7c1.9,1.1,3.3,2.6,4.3,4.5c0.9,1.9,1.4,3.8,1.4,5.8
		c0,2.1-0.5,4.1-1.4,6c-0.9,1.9-2,3.7-3.3,5.3c-1.3,1.6-2.9,3.4-4.9,5.5c-2.2,2.4-3.8,4.3-4.9,5.7s-1.6,2.8-1.6,4.2h16.2v8.3h-25.7
		V136.1z"/>
	<path class="st0" d="M328.5,138.6c-2.3-2.4-3.5-5.9-3.5-10.3v-19.6c0-4.4,1.2-7.9,3.5-10.3c2.3-2.5,5.6-3.7,9.8-3.7
		s7.5,1.2,9.8,3.7c2.4,2.5,3.5,5.9,3.5,10.3v19.6c0,4.4-1.2,7.8-3.5,10.3c-2.4,2.4-5.6,3.7-9.8,3.7S330.8,141.1,328.5,138.6z
		 M342.9,128.4v-19.6c0-1.9-0.4-3.3-1.2-4.3c-0.8-1-1.9-1.5-3.4-1.5c-3,0-4.6,1.9-4.6,5.8v19.6c0,3.7,1.5,5.6,4.6,5.6
		C341.4,134,342.9,132.2,342.9,128.4z"/>
	<path class="st0" d="M355.9,136.1c0-2.6,0.5-5.1,1.5-7.3c1-2.2,2.1-4.2,3.5-5.9c1.4-1.7,3.1-3.7,5.3-5.9c2.2-2.3,3.8-4.2,4.8-5.6
		s1.5-2.8,1.5-4.3c0-1.1-0.3-2-0.9-2.8c-0.6-0.8-1.5-1.2-2.7-1.2s-2.1,0.4-2.8,1.3c-0.7,0.8-1.1,2-1.1,3.6h-8.5
		c0.2-4.4,1.3-7.7,3.4-9.9s5.1-3.4,8.9-3.4c2.8,0,5.1,0.6,7,1.7c1.9,1.1,3.3,2.6,4.3,4.5c0.9,1.9,1.4,3.8,1.4,5.8
		c0,2.1-0.5,4.1-1.4,6c-0.9,1.9-2,3.7-3.3,5.3c-1.3,1.6-2.9,3.4-4.9,5.5c-2.2,2.4-3.8,4.3-4.9,5.7s-1.6,2.8-1.6,4.2h16.2v8.3h-25.7
		V136.1z"/>
	<path class="st0" d="M389.6,138.6c-2.3-2.4-3.5-5.9-3.5-10.3v-19.6c0-4.4,1.2-7.9,3.5-10.3c2.3-2.5,5.6-3.7,9.8-3.7
		s7.5,1.2,9.8,3.7c2.4,2.5,3.5,5.9,3.5,10.3v19.6c0,4.4-1.2,7.8-3.5,10.3c-2.4,2.4-5.6,3.7-9.8,3.7S391.9,141.1,389.6,138.6z
		 M404,128.4v-19.6c0-1.9-0.4-3.3-1.2-4.3c-0.8-1-1.9-1.5-3.4-1.5c-3,0-4.6,1.9-4.6,5.8v19.6c0,3.7,1.5,5.6,4.6,5.6
		C402.5,134,404,132.2,404,128.4z"/>
</g>
<rect x="233.4" y="98" class="st0" width="43.6" height="43.6"/>
</svg>
